<?xml version="1.0" encoding="UTF-8"?>
<svg version="1.1" xmlns="http://www.w3.org/2000/svg" width="512" height="512">
<path d="M0 0 C1.31669017 -0.00467997 2.63338034 -0.00935994 3.98997021 -0.01418173 C7.61107715 -0.02660637 11.2319443 -0.02056076 14.85305166 -0.01122308 C18.77132312 -0.00439757 22.68955514 -0.01493106 26.6078186 -0.02316284 C34.27043292 -0.03646522 41.93295882 -0.03363808 49.59557652 -0.02492492 C55.82612534 -0.01813497 62.05664947 -0.01723731 68.28720093 -0.02049637 C69.17577669 -0.02095607 70.06435246 -0.02141577 70.97985476 -0.0218894 C72.78528159 -0.02284862 74.5907084 -0.02382126 76.39613521 -0.02480717 C93.30433537 -0.03335082 110.21248664 -0.02354303 127.12067878 -0.00740607 C141.61180837 0.00599618 156.10286585 0.0036678 170.59399414 -0.01016235 C187.44390836 -0.02623629 204.29377979 -0.03252695 221.1437006 -0.02332556 C222.9422868 -0.02236997 224.74087301 -0.02142686 226.53945923 -0.02049637 C227.86668189 -0.01980213 227.86668189 -0.01980213 229.22071713 -0.01909386 C235.43991038 -0.01650941 241.65907636 -0.02086319 247.87826538 -0.02793503 C255.46292637 -0.0363704 263.04749429 -0.03402719 270.63214469 -0.0180928 C274.49797545 -0.01023741 278.36365132 -0.00707151 282.22948074 -0.01704025 C286.42867394 -0.02770444 290.62747994 -0.01492534 294.82666016 0 C296.64127888 -0.01003825 296.64127888 -0.01003825 298.49255657 -0.02027929 C314.19098909 0.08762662 328.82065225 4.62267937 340.35083008 15.56845093 C353.82790743 30.07764614 355.8883856 44.51338091 355.84692383 63.43563843 C355.85149241 65.26882113 355.85679998 67.10200212 355.86280823 68.93518066 C355.87169543 72.75604262 355.86936265 76.576695 355.859375 80.39755249 C355.84783022 85.29019138 355.86820284 90.18211441 355.89729214 95.07465935 C355.91563332 98.85108001 355.91536689 102.62732788 355.90965462 106.40378189 C355.90950147 108.20828386 355.9155403 110.01279759 355.92794609 111.81725693 C355.94283304 114.33487992 355.93220072 116.85116275 355.91503906 119.3687439 C355.92470703 120.10959732 355.934375 120.85045074 355.94433594 121.61375427 C355.87496259 126.47667321 354.87692599 128.97013857 351.41333008 132.38095093 C347.92635106 134.12444044 344.21742945 133.96177818 340.41333008 133.38095093 C336.8370922 131.46722033 334.71570772 129.28808385 333.41333008 125.38095093 C333.32994968 123.24300568 333.30599261 121.10253083 333.31567383 118.96298218 C333.31817139 117.83352173 333.32066895 116.70406128 333.32324219 115.54037476 C333.33689819 113.38864746 333.33689819 113.38864746 333.35083008 111.19345093 C333.37145508 106.63532593 333.39208008 102.07720093 333.41333008 97.38095093 C316.25333008 97.38095093 299.09333008 97.38095093 281.41333008 97.38095093 C281.45973633 102.72540405 281.50614258 108.06985718 281.55395508 113.57626343 C281.57439903 116.96690791 281.59365512 120.35747615 281.60864258 123.74813843 C281.63253208 129.1272057 281.66075971 134.50599999 281.71508789 139.88485718 C281.75862526 144.22261416 281.78248388 148.56007831 281.79283905 152.89803696 C281.8002163 154.5510303 281.81462254 156.20400806 281.83625031 157.85687637 C281.86539027 160.17661113 281.86928182 162.49514392 281.86743164 164.81503296 C281.87631409 166.13407623 281.88519653 167.45311951 281.89434814 168.81213379 C281.33291352 172.97758545 280.01337388 175.12223799 277.41333008 178.38095093 C274.00392577 180.96739557 270.57468518 180.74598208 266.41333008 180.38095093 C262.87463068 178.72955787 261.60262855 177.66489863 259.41333008 174.38095093 C259.16723442 171.63796711 259.16723442 171.63796711 259.17282104 168.24967957 C259.16868855 166.32907196 259.16868855 166.32907196 259.16447258 164.36966419 C259.17156626 162.94219183 259.17884205 161.51472037 259.1862793 160.08724976 C259.18689186 158.56501367 259.18662517 157.04277702 259.18554878 155.52054119 C259.18509672 151.43908895 259.1966997 147.35775366 259.21076965 143.27632904 C259.22214818 139.44836554 259.22269527 135.62043067 259.22412109 131.79244995 C259.23462137 120.59276808 259.26254361 109.39310803 259.28833008 98.19345093 C259.32958008 73.17532593 259.37083008 48.15720093 259.41333008 22.38095093 C185.49333008 22.38095093 111.57333008 22.38095093 35.41333008 22.38095093 C35.41333008 138.54095093 35.41333008 254.70095093 35.41333008 374.38095093 C79.96333008 374.38095093 124.51333008 374.38095093 170.41333008 374.38095093 C176.22414089 379.02959958 176.22414089 379.02959958 176.68676758 382.33407593 C176.87487281 386.58814811 176.84903095 389.48077447 174.10083008 392.88095093 C170.00684078 396.68931306 166.52627873 396.52803957 161.22389221 396.52139282 C160.4865892 396.52436394 159.74928618 396.52733507 158.98964065 396.53039622 C156.5117998 396.5390878 154.03400724 396.5405919 151.55615234 396.54208374 C149.78209835 396.54671182 148.00804536 396.55173647 146.23399353 396.55712891 C141.40707349 396.57026136 136.58016736 396.57670026 131.75323224 396.58113956 C128.73509805 396.58407072 125.71696765 396.58817575 122.69883537 396.59264374 C113.24922216 396.60632484 103.79961763 396.61598682 94.3499952 396.61984563 C83.45542289 396.62431912 72.56097649 396.64183145 61.66644245 396.67084622 C53.23908533 396.69250756 44.8117635 396.70255239 36.38437885 396.70388675 C31.35488765 396.70493218 26.32551472 396.71078327 21.29605293 396.72870636 C16.55757442 396.74526265 11.81930207 396.74730606 7.08080482 396.73856735 C5.34911291 396.73780084 3.61740957 396.74208836 1.885746 396.7520256 C-16.22339367 396.84978124 -31.79933156 393.74137243 -45.33666992 380.72470093 C-54.41837402 371.26459249 -60.69509519 360.39029425 -60.720891 346.97346401 C-60.72534884 345.89453992 -60.72980669 344.81561583 -60.73439962 343.70399708 C-60.73421525 342.5244437 -60.73403089 341.34489032 -60.73384094 340.1295929 C-60.73935597 338.24315837 -60.73935597 338.24315837 -60.74498242 336.31861407 C-60.75498013 332.82999026 -60.75871562 329.34138366 -60.76137173 325.85274756 C-60.76528141 322.08910051 -60.77485928 318.325467 -60.78358459 314.56182861 C-60.80333026 305.4736791 -60.8134128 296.3855285 -60.82231238 287.29736289 C-60.82669839 283.01477015 -60.83206439 278.73217864 -60.83730125 274.44958687 C-60.85431163 260.20847677 -60.86880506 245.96736744 -60.87605 231.72624874 C-60.8779598 228.03212928 -60.87988015 224.33800982 -60.88183594 220.64389038 C-60.88256155 219.26670328 -60.88256155 219.26670328 -60.88330182 217.86169422 C-60.89159939 202.99383621 -60.91693254 188.12605873 -60.94941662 173.25823586 C-60.98251419 157.98477041 -61.00050119 142.71134584 -61.00369424 127.43784434 C-61.00585683 118.86598723 -61.01456877 110.29424756 -61.04015541 101.72242546 C-61.06189931 94.42122321 -61.06989473 87.12016694 -61.06018863 79.81893598 C-61.05565457 76.0968857 -61.05747751 72.37513636 -61.07695007 68.65312767 C-61.09792451 64.60894005 -61.08756243 60.56541507 -61.07441711 56.52119446 C-61.08538636 55.35725613 -61.09635561 54.1933178 -61.10765725 52.99410862 C-60.99034643 37.99439912 -55.07579036 26.05734293 -45.02416992 15.13095093 C-32.59460882 3.2672272 -16.69474206 -0.09235326 0 0 Z M-29.83666992 32.13095093 C-36.18045235 38.81124047 -38.72741069 45.54390845 -38.68432617 54.67782593 C-38.68182861 55.76418335 -38.67933105 56.85054077 -38.67675781 57.96981812 C-38.66765381 59.34299194 -38.6585498 60.71616577 -38.64916992 62.13095093 C-38.62854492 66.50345093 -38.60791992 70.87595093 -38.58666992 75.38095093 C-21.42666992 75.38095093 -4.26666992 75.38095093 13.41333008 75.38095093 C13.41333008 57.89095093 13.41333008 40.40095093 13.41333008 22.38095093 C-10.27344796 21.53077905 -10.27344796 21.53077905 -29.83666992 32.13095093 Z M281.41333008 22.38095093 C281.41333008 39.87095093 281.41333008 57.36095093 281.41333008 75.38095093 C298.57333008 75.38095093 315.73333008 75.38095093 333.41333008 75.38095093 C333.49583008 71.13220093 333.57833008 66.88345093 333.66333008 62.50595093 C333.7179541 60.52812622 333.7179541 60.52812622 333.77368164 58.51034546 C333.87331199 47.82579385 331.67425292 39.9634174 324.27270508 32.13485718 C311.80117215 20.37074314 298.66974798 22.38095093 281.41333008 22.38095093 Z M-38.58666992 97.38095093 C-38.58666992 114.87095093 -38.58666992 132.36095093 -38.58666992 150.38095093 C-21.42666992 150.38095093 -4.26666992 150.38095093 13.41333008 150.38095093 C13.41333008 132.89095093 13.41333008 115.40095093 13.41333008 97.38095093 C-3.74666992 97.38095093 -20.90666992 97.38095093 -38.58666992 97.38095093 Z M-38.58666992 172.38095093 C-38.58666992 189.54095093 -38.58666992 206.70095093 -38.58666992 224.38095093 C-21.42666992 224.38095093 -4.26666992 224.38095093 13.41333008 224.38095093 C13.41333008 207.22095093 13.41333008 190.06095093 13.41333008 172.38095093 C-3.74666992 172.38095093 -20.90666992 172.38095093 -38.58666992 172.38095093 Z M-38.58666992 246.38095093 C-38.58666992 263.87095093 -38.58666992 281.36095093 -38.58666992 299.38095093 C-21.42666992 299.38095093 -4.26666992 299.38095093 13.41333008 299.38095093 C13.41333008 281.89095093 13.41333008 264.40095093 13.41333008 246.38095093 C-3.74666992 246.38095093 -20.90666992 246.38095093 -38.58666992 246.38095093 Z M-38.58666992 321.38095093 C-38.66916992 325.62970093 -38.75166992 329.87845093 -38.83666992 334.25595093 C-38.87308594 335.57450073 -38.90950195 336.89305054 -38.94702148 338.2515564 C-39.04665183 348.93610801 -36.84759276 356.79848446 -29.44604492 364.62704468 C-16.974512 376.39115872 -3.84308783 374.38095093 13.41333008 374.38095093 C13.41333008 356.89095093 13.41333008 339.40095093 13.41333008 321.38095093 C-3.74666992 321.38095093 -20.90666992 321.38095093 -38.58666992 321.38095093 Z " fill="#FFFFFF" transform="translate(92.586669921875,41.619049072265625)"/>
<path d="M0 0 C1.10053711 0.62334229 2.20107422 1.24668457 3.33496094 1.88891602 C6.56325299 3.72720963 9.78342901 5.57878588 13 7.4375 C14.30614258 8.18918457 14.30614258 8.18918457 15.63867188 8.95605469 C17.85497479 10.2426759 20.05546028 11.551682 22.25 12.875 C22.87390625 13.23859619 23.4978125 13.60219238 24.140625 13.97680664 C29.47985172 17.27732472 33.02225237 21.50425712 35 27.4375 C35.30859375 30.15234375 35.30859375 30.15234375 35.4375 33.375 C35.49808594 34.41527344 35.55867187 35.45554688 35.62109375 36.52734375 C34.07554233 46.2575134 27.52864933 55.18618995 22.5625 63.5625 C21.32231764 65.67152286 20.08275562 67.78091061 18.84375 69.890625 C18.20953125 70.96892578 17.5753125 72.04722656 16.921875 73.15820312 C13.77515892 78.52744733 10.66841381 83.91958191 7.5625 89.3125 C6.62966187 90.93115967 6.62966187 90.93115967 5.67797852 92.58251953 C4.41550269 94.77332951 3.15321444 96.9642476 1.89111328 99.15527344 C-1.23680148 104.58409942 -4.36858448 110.01069281 -7.5 115.4375 C-8.75001879 117.60415583 -10.00001878 119.7708225 -11.25 121.9375 C-23.75 143.60416667 -36.25 165.27083333 -48.75 186.9375 C-49.6788501 188.54818359 -49.6788501 188.54818359 -50.62646484 190.19140625 C-51.87000269 192.3459644 -53.11510656 194.49961949 -54.36181641 196.65234375 C-57.25909912 201.65943091 -60.14145185 206.67313807 -62.96539307 211.72192383 C-63.95537426 213.49006387 -64.95053404 215.25518905 -65.94726562 217.01953125 C-67.18803741 219.21948122 -68.41930034 221.42483549 -69.63867188 223.63671875 C-78.5864669 239.42932421 -90.42679712 247.80548057 -106.1875 256.125 C-108.26468115 257.23240122 -110.34151327 258.34045744 -112.41796875 259.44921875 C-113.38259033 259.96242676 -114.34721191 260.47563477 -115.34106445 261.00439453 C-117.62035585 262.23288048 -119.8745899 263.4913388 -122.1171875 264.78515625 C-127.46711044 267.85157549 -133.10771493 268.41236329 -139.12109375 266.90625 C-146.6151515 264.29962122 -150.49228703 260.45292594 -154 253.4375 C-154.83279032 250.69171775 -155.14934336 248.16477263 -155.23706055 245.30249023 C-155.27666145 244.09489296 -155.27666145 244.09489296 -155.31706238 242.86289978 C-155.34004898 241.99935379 -155.36303558 241.1358078 -155.38671875 240.24609375 C-155.41224319 239.34560806 -155.43776764 238.44512238 -155.46406555 237.51734924 C-155.51603336 235.61018339 -155.5654651 233.70294698 -155.61254883 231.7956543 C-155.68661362 228.90954009 -155.77753808 226.02427534 -155.86914062 223.13867188 C-156.50724454 200.32249679 -156.50724454 200.32249679 -150.875 189.5 C-150.53863525 188.85144043 -150.20227051 188.20288086 -149.85571289 187.53466797 C-143.90839942 176.25602642 -137.41526161 165.25830874 -131.03173828 154.22241211 C-129.40337088 151.4053288 -127.77999595 148.5853739 -126.15625 145.765625 C-123.06122176 140.39313842 -119.96095213 135.02369919 -116.85888672 129.65527344 C-113.73675395 124.25079355 -110.61858796 118.84402588 -107.5 113.4375 C-106.25001878 111.2708225 -105.00001879 109.10415583 -103.75 106.9375 C-103.13125 105.865 -102.5125 104.7925 -101.875 103.6875 C-95 91.77083333 -88.125 79.85416667 -81.25 67.9375 C-80.63116943 66.86483887 -80.01233887 65.79217773 -79.37475586 64.68701172 C-78.12564482 62.52192929 -76.87645871 60.35689018 -75.62719727 58.19189453 C-71.85625338 51.65650919 -68.08781263 45.11969184 -64.32250977 38.58105469 C-63.07406032 36.41627796 -61.82327635 34.25284576 -60.57006836 32.09082031 C-57.41298919 26.64314857 -54.29058544 21.18031551 -51.2265625 15.6796875 C-50.61111572 14.58930176 -49.99566895 13.49891602 -49.36157227 12.37548828 C-48.1996665 10.31657045 -47.05072981 8.25025485 -45.91772461 6.17529297 C-41.85269515 -0.9730604 -37.48365751 -5.54942928 -29.9375 -8.9375 C-18.44044994 -11.38368086 -9.65824606 -5.48790628 0 0 Z M-23 13.4375 C-30.33637207 25.09157913 -37.15589694 37.03723097 -44.01220703 48.97802734 C-47.1672263 54.46889237 -50.33397963 59.95297345 -53.5 65.4375 C-54.75006112 67.60413141 -56.000061 69.77079814 -57.25 71.9375 C-69.75 93.60416667 -82.25 115.27083333 -94.75 136.9375 C-95.36907227 138.01056396 -95.98814453 139.08362793 -96.62597656 140.18920898 C-97.87270256 142.35018988 -99.11944727 144.51115998 -100.36621094 146.67211914 C-103.54145883 152.17568851 -106.71635495 157.67946032 -109.890625 163.18359375 C-110.53112793 164.29404053 -111.17163086 165.4044873 -111.83154297 166.54858398 C-113.09651427 168.74191995 -114.36116996 170.93543796 -115.62548828 173.12915039 C-118.52329284 178.15501812 -121.42752157 183.17684401 -124.3515625 188.1875 C-124.86493164 189.06865479 -125.37830078 189.94980957 -125.90722656 190.85766602 C-126.85732268 192.48714723 -127.80965223 194.11532912 -128.76464844 195.74194336 C-129.18004883 196.45487549 -129.59544922 197.16780762 -130.0234375 197.90234375 C-130.56363525 198.82454712 -130.56363525 198.82454712 -131.11474609 199.76538086 C-132.67826323 202.7186431 -133.12386554 205.17212241 -133.11352539 208.44995117 C-133.11344986 209.25055466 -133.11337433 210.05115814 -133.11329651 210.87602234 C-133.10813522 211.73548965 -133.10297394 212.59495697 -133.09765625 213.48046875 C-133.0962413 214.3640657 -133.09482635 215.24766266 -133.09336853 216.15803528 C-133.08777069 218.98039128 -133.07521861 221.80266797 -133.0625 224.625 C-133.05748472 226.53841031 -133.05292186 228.45182187 -133.04882812 230.36523438 C-133.03780197 235.05602014 -133.02053883 239.74674663 -133 244.4375 C-120.32456135 238.21088895 -120.32456135 238.21088895 -107.9375 231.4375 C-107.25751953 231.06367188 -106.57753906 230.68984375 -105.87695312 230.3046875 C-96.74099562 225.0140659 -91.85821365 217.02808485 -86.9375 207.9375 C-85.79974758 205.88064091 -84.6603726 203.82467866 -83.51953125 201.76953125 C-82.64868896 200.19486084 -82.64868896 200.19486084 -81.76025391 198.58837891 C-78.95109972 193.55995395 -76.04006872 188.59254023 -73.125 183.625 C-66.3299604 172.01877734 -59.60409567 160.37356091 -52.89111328 148.71972656 C-49.76319852 143.29090058 -46.63141552 137.86430719 -43.5 132.4375 C-42.24998121 130.27084417 -40.99998122 128.1041775 -39.75 125.9375 C-32.25 112.9375 -24.75 99.9375 -17.25 86.9375 C-16.6302832 85.86330811 -16.01056641 84.78911621 -15.37207031 83.68237305 C-14.13189239 81.53276366 -12.89165873 79.38318642 -11.65136719 77.23364258 C-8.7264977 72.16440788 -5.80219167 67.09485064 -2.87988281 62.0241394 C-1.50193062 59.63323403 -0.12365828 57.24251328 1.25463867 54.85180664 C2.22540982 53.16766037 3.19571874 51.48324769 4.16601562 49.79882812 C4.75576172 48.77595703 5.34550781 47.75308594 5.953125 46.69921875 C6.47036133 45.80162842 6.98759766 44.90403809 7.52050781 43.97924805 C8.53593633 42.23475526 9.61821274 40.52800402 10.75292969 38.85864258 C12.16551094 36.57674634 12.16551094 36.57674634 11.98388672 34.31396484 C10.58471751 31.64547489 8.88983826 30.85253404 6.2578125 29.4140625 C5.27296875 28.8675 4.288125 28.3209375 3.2734375 27.7578125 C2.23445312 27.19835937 1.19546875 26.63890625 0.125 26.0625 C-0.8753125 25.51078125 -1.875625 24.9590625 -2.90625 24.390625 C-5.9303927 22.72617437 -8.96412293 21.08043379 -12 19.4375 C-14.08630363 18.30015053 -16.17226118 17.1621659 -18.2578125 16.0234375 C-19.8385169 15.16141292 -21.41923628 14.2994158 -23 13.4375 Z " fill="#FFFFFF" transform="translate(445,202.5625)"/>
<path d="M0 0 C1.02480469 -0.02835938 2.04960937 -0.05671875 3.10546875 -0.0859375 C12.62571898 1.09782386 20.66775856 5.72600314 28.75 10.625 C30.86247275 11.88156854 32.97578933 13.1367193 35.08984375 14.390625 C36.73509033 15.36999023 36.73509033 15.36999023 38.41357422 16.36914062 C43.59118608 19.42468286 48.81509081 22.39754439 54.04162598 25.3682251 C65.52570352 31.89713732 76.96692794 38.49697351 88.35546875 45.19140625 C91.81471214 47.22179213 95.29164444 49.20954713 98.80078125 51.15234375 C109.21271322 56.96115203 118.05462232 62.76668903 122.19140625 74.5703125 C124.3505586 84.32044701 123.56181199 94.08341949 118.44140625 102.67578125 C115.43739345 106.96208249 112.26504816 109.95770635 107.81640625 112.7109375 C106.35678467 113.61465088 106.35678467 113.61465088 104.86767578 114.53662109 C99.86456845 117.54712119 94.81901726 120.47708182 89.75 123.375 C88.0336132 124.36071612 86.31722872 125.3464363 84.60098267 126.33239746 C82.83582425 127.34605824 81.07005668 128.35865132 79.30419922 129.37109375 C74.8736314 131.91241913 70.44997811 134.46569697 66.02661133 137.01953125 C63.88240535 138.2573562 61.73771034 139.4943344 59.5925293 140.73046875 C54.59925381 143.60811569 49.60902836 146.49061557 44.62985229 149.39260864 C6.29411575 171.7351099 6.29411575 171.7351099 -8 168.796875 C-16.38968321 166.175099 -23.10052246 161.15804106 -27.88671875 153.7421875 C-30.84635677 148.06036092 -32.30125587 142.94551207 -32.33467102 136.51986694 C-32.34182632 135.56967682 -32.34898163 134.61948669 -32.35635376 133.64050293 C-32.35904266 132.60977661 -32.36173157 131.57905029 -32.36450195 130.51708984 C-32.37107315 129.42212189 -32.37764435 128.32715393 -32.38441467 127.19900513 C-32.40411239 123.57798184 -32.41580312 119.95699999 -32.42578125 116.3359375 C-32.42985678 115.09654041 -32.4339323 113.85714333 -32.43813133 112.58018875 C-32.45683087 106.69461003 -32.47139904 100.80904439 -32.4797433 94.9234432 C-32.48949994 88.15539473 -32.51578491 81.38767468 -32.55624419 74.6197418 C-32.59018842 68.73738987 -32.60190021 62.85514685 -32.60594749 56.97270584 C-32.61080528 54.4809611 -32.62239602 51.98921966 -32.64098549 49.49753952 C-32.66544701 46.00118953 -32.66439848 42.50568748 -32.6574707 39.00927734 C-32.67028076 37.99069641 -32.68309082 36.97211548 -32.69628906 35.92266846 C-32.62819262 26.43844819 -30.05887003 17.62019596 -24.0234375 10.16015625 C-17.5064919 3.82346659 -9.06549349 0.11261483 0 0 Z M-7.1875 25.375 C-10.89327843 30.93366765 -10.34089015 36.8163675 -10.34863281 43.28662109 C-10.35359772 44.28072495 -10.35856262 45.2748288 -10.36367798 46.29905701 C-10.37826315 49.58219092 -10.38509496 52.86527654 -10.390625 56.1484375 C-10.39637871 58.43380738 -10.40213642 60.71917726 -10.40789795 63.00454712 C-10.41839705 67.79437484 -10.4242471 72.58418583 -10.42773438 77.37402344 C-10.43322187 83.50629407 -10.45726014 89.63834299 -10.48570633 95.77054405 C-10.50434333 100.49063766 -10.50953885 105.21067791 -10.51107025 109.93080521 C-10.51409404 112.19139444 -10.52211332 114.4519828 -10.53525543 116.71253586 C-10.55234048 119.87672504 -10.55042966 123.04037304 -10.54394531 126.20458984 C-10.5531601 127.13469376 -10.56237488 128.06479767 -10.5718689 129.02308655 C-10.53154308 135.31584582 -9.78360948 140.3942817 -5.5 145.3125 C-1.98036846 146.929628 1.06392991 147.05310493 4.8125 146.375 C8.98829163 144.54696941 12.80563201 142.19201043 16.6875 139.8125 C17.83483513 139.12705766 18.98329697 138.44349815 20.1328125 137.76171875 C22.51711527 136.34561365 24.89639494 134.92157819 27.27246094 133.49169922 C32.74146423 130.2097367 38.28059723 127.04931864 43.8125 123.875 C45.96641655 122.63197939 48.12006127 121.38848765 50.2734375 120.14453125 C54.73246917 117.57149687 59.19659767 115.00758103 63.6640625 112.44921875 C78.06569801 104.1999668 78.06569801 104.1999668 92.3125 95.6875 C92.95912598 95.30166748 93.60575195 94.91583496 94.27197266 94.51831055 C97.46410121 92.53596593 99.69210936 91.04900825 100.8125 87.375 C100.91801135 84.10414819 100.96217852 82.32456733 99.8125 79.375 C94.3739518 73.82690758 86.62748734 70.22474043 79.9375 66.4375 C78.20088923 65.44515099 76.46428313 64.45279368 74.72796631 63.45993042 C72.93706461 62.4366938 71.1448964 61.41570384 69.35253906 60.39501953 C63.82579694 57.24494646 58.32046262 54.05775114 52.8125 50.875 C50.66543743 49.63659245 48.51830164 48.39831182 46.37109375 47.16015625 C42.4304374 44.88690607 38.49119595 42.61124488 34.55386353 40.33224487 C32.79591931 39.31482294 31.03765558 38.29795539 29.27929688 37.28125 C27.08595599 36.0128119 24.89320153 34.74335898 22.70117188 33.47265625 C19.74397548 31.76329417 16.77872452 30.06863298 13.8125 28.375 C12.81589355 27.79250488 11.81928711 27.21000977 10.79248047 26.60986328 C9.82842285 26.05927246 8.86436523 25.50868164 7.87109375 24.94140625 C7.01700928 24.44713135 6.1629248 23.95285645 5.28295898 23.44360352 C0.30033818 21.28835781 -2.9058379 22.25054387 -7.1875 25.375 Z " fill="#FFFFFF" transform="translate(202.1875,160.625)"/>
<path d="M0 0 C5.53846154 3.07692308 5.53846154 3.07692308 7 6 C8.66761831 23.64225167 4.93041446 36.67083649 -5.1875 51.125 C-10.49447646 57.15331307 -18.25394687 62.7655616 -26 65 C-31.3225537 64.90823183 -34.18865182 63.69924971 -38 60 C-39.73746261 56.52507478 -39.45011609 52.79950935 -39 49 C-36.97084531 45.20636297 -34.22617514 43.44597185 -30.6875 41.1875 C-23.83320674 36.76100419 -18.77866044 31.51614318 -16.47265625 23.5625 C-15.90321587 20.47528606 -15.7298887 17.44658637 -15.5625 14.3125 C-15.24613813 8.89638483 -14.74421571 5.95817089 -11 2 C-7.58542996 -0.59036348 -4.16717829 -0.43108741 0 0 Z " fill="#FFFFFF" transform="translate(441,369)"/>
</svg>
