<svg version="1.1" xmlns="http://www.w3.org/2000/svg" style="display: block;" viewBox="0 0 2752 1536" width="2752" height="1536" preserveAspectRatio="none">
<path transform="translate(0,0)" fill="rgb(234,235,234)" d="M 0 0 L 2752 0 L 2752 1536 L 0 1536 L 0 0 z"/>
<path transform="translate(0,0)" fill="rgb(48,52,57)" d="M 1318.41 696.858 C 1321.82 689.168 1328.78 664.007 1331.65 654.496 L 1357.56 569.021 C 1360.36 559.804 1363.24 550.478 1366.09 541.428 C 1377 506.726 1404.81 479.916 1439.96 470.467 C 1451.32 467.413 1469.3 465.157 1481.25 467.665 C 1491.39 468.512 1503.39 471.599 1512.38 476.378 C 1540.76 488.226 1558.2 510.792 1569.05 538.658 C 1584.91 579.652 1601.05 620.534 1617.48 661.3 C 1625.35 681.119 1632.98 701.083 1641.18 720.735 C 1645.26 730.491 1652.38 737.443 1663.34 732.473 C 1671.84 728.622 1677.21 707.342 1680.4 698.597 L 1717.01 600.091 C 1724 581.099 1739.55 535.195 1748.08 520.451 C 1773.39 476.567 1825.89 456.299 1874.12 471.8 C 1901.15 480.246 1923.58 499.313 1936.27 524.624 C 1942.3 536.776 1948.2 556.283 1952.66 569.581 L 1977.41 643.317 C 1980.01 650.919 1985.3 667.479 1988.55 674.356 L 1988.76 675.221 C 1995.21 698.932 2008.4 733.263 2016.68 757.434 L 2067.31 907.247 C 2073.09 924.373 2086.52 960.092 2090.4 975.911 L 2095.8 991.077 C 2098.73 1003.77 2130.92 1067.57 2103.11 1068.55 C 2043.53 1070.66 1992.11 1076.02 1948.38 1026.38 C 1939.16 1016 1931.69 1004.18 1926.25 991.403 C 1919.5 975.711 1908.86 936.916 1903.24 918.571 C 1887.88 869.128 1872.88 819.574 1858.23 769.914 C 1855.14 759.431 1849.36 732.766 1840.16 727.792 C 1818.47 716.067 1810.34 755.677 1804.44 770.363 C 1793.68 796.962 1783.24 823.685 1773.1 850.528 C 1767.48 865.193 1760.19 885.757 1753.57 899.703 C 1741.35 925.077 1719.6 944.602 1693.07 954.034 C 1665.63 963.576 1635.52 961.864 1609.34 949.275 C 1577.01 933.681 1562.85 910.446 1551.54 878.043 C 1546.96 867.913 1539.84 850.512 1536.47 840.236 C 1531.87 831.94 1527.38 819.145 1523.82 810.01 L 1504.12 759.529 C 1500.84 751.267 1497.93 742.8 1493.61 735.026 C 1485.68 720.772 1468.82 723.602 1464.01 738.788 C 1457.1 760.57 1450.96 782.596 1444.18 804.454 L 1421.93 876.535 C 1418.43 887.919 1412.48 904.142 1410.33 915.558 C 1413.01 923.919 1402.82 941.107 1401.62 950.234 C 1400.9 955.617 1402.02 966.808 1398.79 970.614 L 1396.39 970.236 C 1393.58 975.561 1394.5 979.394 1390.57 981.664 L 1390.26 982.421 C 1386.85 990.904 1384.92 998.814 1381.1 1007.52 C 1370.63 1031.28 1351.59 1050.21 1327.78 1060.54 C 1301.12 1071.95 1270.02 1072.21 1243.04 1061.4 C 1230.51 1056.38 1207.91 1041.07 1200.79 1029.86 C 1194.88 1023.5 1189.74 1013.96 1186.53 1005.94 C 1183.43 1000.86 1172.66 972.387 1170.85 966.457 C 1168.09 961.928 1156.63 931.257 1155.2 925.86 C 1142.87 899.198 1133.81 869.353 1122.21 842.325 C 1117.35 831.01 1111.54 806.838 1100.11 802.813 C 1082.44 796.595 1075.32 828.944 1070.9 840.863 C 1057.9 874.963 1045.21 909.178 1032.81 943.504 C 1015.43 991.002 1003.64 1042.59 950.524 1062.29 C 929.681 1070.02 913.466 1069.99 891.828 1067.92 L 891.628 1069.03 C 888.74 1069.54 876.86 1067.05 873.47 1066.3 C 865.666 1064.58 860.335 1060.2 853.923 1055.54 L 854.015 1053.48 C 825.21 1030.16 823.873 1029 808.477 993.727 C 807.907 993.659 806.759 993.119 806.159 992.874 C 803.176 987.458 804.355 985.068 802.423 981.024 C 801.185 978.433 792.23 970.391 792.373 966.263 C 792.529 961.796 792.429 957.5 795.258 953.991 C 792.865 944.746 785.258 924.319 781.839 914.258 L 752.555 828.397 L 646.374 516.267 C 643.675 508.202 639.276 496.053 637.581 488.102 C 629.477 462.152 668.743 467.195 682.646 466.789 C 718.858 465.73 748.161 467.894 779.595 488.732 C 796.012 499.782 809.484 514.672 818.841 532.109 C 831.571 555.323 840.155 590.113 848.158 616.234 L 891.105 756.952 C 896.404 773.816 907.049 833.415 934.365 801.151 C 937.096 797.926 946.606 770.101 948.753 764.438 L 971.762 705.171 C 992.505 651.162 1003.87 597.064 1067.12 579.735 C 1095.25 572.278 1125.19 576.238 1150.41 590.754 C 1165.3 599.612 1177.82 611.961 1186.87 626.736 C 1194.23 638.919 1203.06 663.205 1208.72 677.575 L 1244.24 768.028 C 1245.42 770.978 1250.92 782.716 1251.75 786.693 C 1255.21 803.179 1274.1 821.537 1286.93 801.318 C 1292.93 791.859 1296.19 766.7 1300.91 755.744 C 1303.63 746.146 1309.71 728.92 1311.51 720.161 C 1310.21 716.588 1311.88 705.007 1312.85 700.879 C 1314.6 699.531 1315.19 698.51 1316.46 696.75 L 1318.41 696.858 z"/>
<path transform="translate(0,0)" fill="rgb(237,238,235)" d="M 1410.33 915.558 C 1413.01 923.919 1402.82 941.107 1401.62 950.234 C 1400.9 955.617 1402.02 966.808 1398.79 970.614 L 1396.39 970.236 C 1393.58 975.561 1394.5 979.394 1390.57 981.664 C 1393.85 964.717 1404.87 932.655 1410.33 915.558 z"/>
<path transform="translate(0,0)" fill="rgb(237,238,235)" d="M 808.477 993.727 C 807.907 993.659 806.759 993.119 806.159 992.874 C 803.176 987.458 804.355 985.068 802.423 981.024 C 801.185 978.433 792.23 970.391 792.373 966.263 C 792.529 961.796 792.429 957.5 795.258 953.991 C 798.294 962.711 806.843 985.768 808.477 993.727 z"/>
<path transform="translate(0,0)" fill="rgb(38,45,49)" d="M 1155.2 925.86 L 1156.65 925.28 L 1162.34 937.275 C 1162.86 933.025 1162.99 929.095 1164.82 925.281 L 1165.71 925.297 C 1166.26 928.845 1167.55 938.211 1165.69 940.91 C 1165.37 939.333 1165.5 939.855 1165.96 938.115 L 1164.67 936.521 L 1163.13 936.972 C 1160.91 946.032 1172.64 956.976 1170.85 966.457 C 1168.09 961.928 1156.63 931.257 1155.2 925.86 z"/>
<path transform="translate(0,0)" fill="rgb(38,45,49)" d="M 1536.47 840.236 C 1542.42 842.79 1540.57 850.334 1545.21 854.699 C 1547.4 853.428 1547.33 852.06 1548.61 849.154 L 1549.79 849.558 C 1551.17 853.549 1547.72 860.033 1547.95 863.583 C 1548.16 866.936 1552.64 873.278 1552.36 877.166 L 1551.54 878.043 C 1546.96 867.913 1539.84 850.512 1536.47 840.236 z"/>
<path transform="translate(0,0)" fill="rgb(38,45,49)" d="M 1481.25 467.665 C 1491.39 468.512 1503.39 471.599 1512.38 476.378 C 1507.21 476.069 1498.07 481.857 1492.57 475.749 L 1494.55 472.463 C 1488.84 470.698 1484.48 471.326 1481.25 467.665 z"/>
<path transform="translate(0,0)" fill="rgb(237,238,235)" d="M 891.828 1067.92 L 891.628 1069.03 C 888.74 1069.54 876.86 1067.05 873.47 1066.3 C 865.666 1064.58 860.335 1060.2 853.923 1055.54 L 854.015 1053.48 C 867.852 1060.79 876.153 1064.31 891.828 1067.92 z"/>
<path transform="translate(0,0)" fill="rgb(38,45,49)" d="M 637.581 488.102 L 639.146 488.062 C 640.811 492.571 641.693 497.573 645.223 499.486 C 646.523 497.207 646.006 496.788 645.969 493.687 C 650.608 497.274 648.071 511.031 646.374 516.267 C 643.675 508.202 639.276 496.053 637.581 488.102 z"/>
<path transform="translate(0,0)" fill="rgb(38,45,49)" d="M 1186.53 1005.94 L 1188.5 1005.9 C 1191.14 1009.98 1195.67 1012.74 1196.64 1018.4 C 1197.28 1022.18 1201.03 1026.84 1200.79 1029.86 C 1194.88 1023.5 1189.74 1013.96 1186.53 1005.94 z"/>
<path transform="translate(0,0)" fill="rgb(237,238,235)" d="M 1311.51 720.161 C 1310.21 716.588 1311.88 705.007 1312.85 700.879 C 1314.6 699.531 1315.19 698.51 1316.46 696.75 L 1318.41 696.858 C 1316.51 704.76 1314.44 712.56 1311.51 720.161 z"/>
<path transform="translate(0,0)" fill="rgb(38,45,49)" d="M 2090.4 975.911 L 2095.8 991.077 L 2092.3 995.595 L 2090.8 994.742 C 2089.42 991.125 2089.92 979.777 2090.4 975.911 z"/>
<path transform="translate(0,0)" fill="rgb(38,45,49)" d="M 1409.34 877.267 L 1411.06 878.031 C 1411.82 880.79 1411.51 893.481 1411.48 896.77 L 1410.94 897.749 L 1409.64 896.912 C 1408.75 890.425 1409.16 883.822 1409.34 877.267 z"/>
<path transform="translate(0,0)" fill="rgb(38,45,49)" d="M 2000.04 736.313 L 2002.29 737.834 C 2003.74 740.084 2003.57 740.439 2003.4 743.198 L 2002.98 750.529 L 2001.31 750.365 C 1999.73 745.294 2000.03 741.608 2000.04 736.313 z"/>
<path transform="translate(0,0)" fill="rgb(38,45,49)" d="M 718.176 689.695 L 719.814 691.584 C 720.683 696.145 719.635 699.46 718.651 703.947 L 717.677 703.248 C 717.238 698.444 716.373 694.118 718.176 689.695 z"/>
<path transform="translate(0,0)" fill="rgb(237,238,235)" d="M 1988.55 674.356 C 1988.71 670.8 1988.15 667.38 1989.96 665.063 C 1993.84 665.055 1992.61 664.501 1995.23 666.614 C 1996.83 670.965 1995.31 674.889 1993.6 679.07 C 1991.69 677.227 1991.14 676.548 1988.76 675.221 L 1988.55 674.356 z"/>
<path transform="translate(0,0)" fill="rgb(237,238,235)" d="M 856.322 616.199 C 859.889 621.135 858.437 632.906 858.213 639.753 C 854.888 631.322 849.555 623.483 856.322 616.199 z"/>
<path transform="translate(0,0)" fill="rgb(237,238,235)" d="M 1433.61 847.632 C 1435.48 852.609 1436.63 863.031 1432.32 866.939 C 1432.4 860.525 1430.93 852.646 1433.61 847.632 z"/>
<path transform="translate(0,0)" fill="rgb(237,238,235)" d="M 1049.49 904.789 L 1050.25 905.883 C 1051.21 913.318 1051.1 916.805 1049.34 923.936 C 1047.58 919.938 1048.02 909.069 1049.49 904.789 z"/>
<path transform="translate(0,0)" fill="rgb(237,238,235)" d="M 997.038 624.341 L 999.761 626.117 C 1000.5 629.843 999.334 630.378 997.335 634.403 L 996.67 635.091 L 995.687 634.62 C 995.82 630.149 996.143 628.623 997.038 624.341 z"/>
<path transform="translate(0,0)" fill="rgb(237,238,235)" d="M 1578.67 554.198 L 1582.28 555.744 C 1583.64 558.986 1582.93 559.437 1582.32 563.284 L 1581.11 562.98 C 1578.69 559.953 1579.22 558.497 1578.67 554.198 z"/>
</svg>